<?xml version="1.0" standalone="no"?>
<!DOCTYPE svg PUBLIC "-//W3C//DTD SVG 20010904//EN"
 "http://www.w3.org/TR/2001/REC-SVG-20010904/DTD/svg10.dtd">
<svg version="1.0" xmlns="http://www.w3.org/2000/svg"
 width="70.000000pt" height="70.000000pt" viewBox="0 0 70.000000 70.000000"
 preserveAspectRatio="xMidYMid meet">
<metadata>
Created by potrace 1.11, written by Peter Selinger 2001-2013
</metadata>
<g transform="translate(0.000000,70.000000) scale(0.100000,-0.100000)"
fill="#000000" stroke="none">
<path d="M192 598 c3 -97 2 -98 -41 -87 -10 3 -17 -7 -22 -26 -4 -16 -7 -23
-8 -15 -1 20 -28 -19 -43 -62 -6 -18 -16 -36 -21 -40 -6 -3 -13 -45 -16 -91
-6 -85 -6 -85 14 -64 l19 21 7 -25 c4 -13 7 -34 8 -47 1 -19 -1 -21 -13 -10
-7 7 -11 19 -9 25 8 19 -12 16 -30 -5 -25 -28 -22 -60 7 -68 26 -6 52 -49 35
-60 -5 -3 -17 0 -25 7 -18 14 -29 6 -20 -16 4 -12 18 -16 62 -14 l56 2 -6 51
c-2 28 -8 68 -11 89 -8 40 3 48 29 21 33 -32 37 -58 24 -149 -3 -19 3 -20 107
-21 61 -1 168 2 238 6 107 7 131 11 142 27 22 27 18 61 -10 88 -20 21 -34 25
-83 25 l-60 0 -10 38 c-17 59 -43 126 -53 137 -5 5 -9 41 -9 80 0 38 -5 88
-11 110 -7 22 -14 65 -16 95 -3 30 -8 59 -13 64 -4 4 -29 -4 -54 -19 l-46 -27
-54 26 c-29 14 -56 26 -60 26 -3 0 -5 -42 -4 -92z m162 -75 c-5 -5 -12 -12
-16 -18 -4 -6 -8 -2 -8 8 0 9 7 17 17 17 9 0 12 -3 7 -7z"/>
</g>
</svg>
